# xmcd CD database file
#
# Track frame offsets:
#	182
#	15357
#	53970
#	106287
#	132210
#	143262
#	159732
#	186022
#	211760
#
# Disc length: 3214 seconds
#
# Revision: 0
# Processed by: cddbd v1.5.1PL0 Copyright (c) Steve Scherf et al.
# Submitted via: CDex 1.51
#
DISCID=6c0c8c09
DTITLE=Lounge Lizards - Demented
DYEAR=1900
DGENRE=Jazz
TTITLE0=Destry rides again
TTITLE1=Lisa is too short to run for President
TTITLE2=Intro to "Hair Street"
TTITLE3=Hair Street
TTITLE4=Demented
TTITLE5=Intro to "Stranger then Paradise"
TTITLE6=Stranger then Paradise
TTITLE7=Loons
TTITLE8=C Jam Blues
EXTD=
EXTT0=
EXTT1=
EXTT2=
EXTT3=
EXTT4=
EXTT5=
EXTT6=
EXTT7=
EXTT8=
PLAYORDER=
